<svg width="72" height="20" viewBox="0 0 72 20" fill="none" xmlns="http://www.w3.org/2000/svg">
<path d="M4.164 15V6.796H1.392V5.816H8.112V6.796H5.34V15H4.164ZM11.8659 15V5.816H13.0279V9.666H17.2979V5.816H18.4739V15H17.2979V10.674H13.0279V15H11.8659ZM23.0987 15V5.816H28.3907V6.796H24.2607V9.68H27.7467V10.674H24.2607V14.006H28.5307V15H23.0987ZM37.4842 15V5.816H40.1022C40.7929 5.816 41.3949 5.9 41.9082 6.068C42.4216 6.236 42.8229 6.52067 43.1122 6.922C43.4016 7.314 43.5462 7.846 43.5462 8.518C43.5462 9.47933 43.2336 10.1933 42.6082 10.66C41.9829 11.1267 41.1662 11.36 40.1582 11.36H38.6462V15H37.4842ZM38.6462 10.408H40.0182C40.8209 10.408 41.4136 10.2587 41.7962 9.96C42.1882 9.652 42.3842 9.17133 42.3842 8.518C42.3842 7.85533 42.1789 7.398 41.7682 7.146C41.3669 6.88467 40.7649 6.754 39.9622 6.754H38.6462V10.408ZM47.5139 15V5.816H48.6759V15H47.5139ZM53.2916 15V5.816H54.4956L57.8136 11.584L58.8076 13.488H58.8636C58.8356 13.0213 58.803 12.5407 58.7656 12.046C58.7376 11.542 58.7236 11.0473 58.7236 10.562V5.816H59.8296V15H58.6256L55.2936 9.218L54.2996 7.328H54.2436C54.281 7.78533 54.3136 8.25667 54.3416 8.742C54.379 9.22733 54.3976 9.71267 54.3976 10.198V15H53.2916ZM64.4561 15V5.816H69.7481V6.796H65.6181V9.68H69.1041V10.674H65.6181V14.006H69.8881V15H64.4561Z" fill="black"/>
</svg>
