<svg width="69" height="10" viewBox="0 0 69 10" fill="none" xmlns="http://www.w3.org/2000/svg">
<path d="M3.164 9.5V1.296H0.392V0.316H7.112V1.296H4.34V9.5H3.164ZM10.8659 9.5V0.316H12.0279V4.166H16.2979V0.316H17.4739V9.5H16.2979V5.174H12.0279V9.5H10.8659ZM22.0987 9.5V0.316H27.3907V1.296H23.2607V4.18H26.7467V5.174H23.2607V8.506H27.5307V9.5H22.0987ZM36.4842 9.5V0.316H39.1022C39.7929 0.316 40.3949 0.4 40.9082 0.568C41.4216 0.736 41.8229 1.02067 42.1122 1.422C42.4016 1.814 42.5462 2.346 42.5462 3.018C42.5462 3.97933 42.2336 4.69333 41.6082 5.16C40.9829 5.62667 40.1662 5.86 39.1582 5.86H37.6462V9.5H36.4842ZM37.6462 4.908H39.0182C39.8209 4.908 40.4136 4.75867 40.7962 4.46C41.1882 4.152 41.3842 3.67133 41.3842 3.018C41.3842 2.35533 41.1789 1.898 40.7682 1.646C40.3669 1.38467 39.7649 1.254 38.9622 1.254H37.6462V4.908ZM46.5139 9.5V0.316H47.6759V9.5H46.5139ZM52.2916 9.5V0.316H53.4956L56.8136 6.084L57.8076 7.988H57.8636C57.8356 7.52133 57.803 7.04067 57.7656 6.546C57.7376 6.042 57.7236 5.54733 57.7236 5.062V0.316H58.8296V9.5H57.6256L54.2936 3.718L53.2996 1.828H53.2436C53.281 2.28533 53.3136 2.75667 53.3416 3.242C53.379 3.72733 53.3976 4.21267 53.3976 4.698V9.5H52.2916ZM63.4561 9.5V0.316H68.7481V1.296H64.6181V4.18H68.1041V5.174H64.6181V8.506H68.8881V9.5H63.4561Z" fill="black"/>
</svg>
